<svg xmlns="http://www.w3.org/2000/svg" xmlns:xlink="http://www.w3.org/1999/xlink" version="1.1" x="0px" y="0px" viewBox="0 0 16 20" style="enable-background:new 0 0 16 16;" xml:space="preserve"><g><path d="M2.5,16c-0.071,0-0.142-0.015-0.209-0.046C2.114,15.873,2,15.695,2,15.5V13c-1.103,0-2-0.897-2-2V5c0-1.103,0.897-2,2-2   h4.5C6.776,3,7,3.224,7,3.5S6.776,4,6.5,4H2C1.449,4,1,4.449,1,5v6c0,0.552,0.449,1,1,1h0.5C2.776,12,3,12.224,3,12.5v1.913   l2.675-2.293C5.765,12.043,5.881,12,6,12h5c0.552,0,1-0.448,1-1V9.5C12,9.224,12.224,9,12.5,9S13,9.224,13,9.5V11   c0,1.103-0.897,2-2,2H6.185l-3.36,2.88C2.733,15.959,2.617,16,2.5,16z"/><path d="M12,8C9.794,8,8,6.206,8,4s1.794-4,4-4s4,1.794,4,4S14.206,8,12,8z M12,1c-1.654,0-3,1.346-3,3s1.346,3,3,3s3-1.346,3-3   S13.654,1,12,1z"/><path d="M12,6c-0.276,0-0.5-0.224-0.5-0.5v-3C11.5,2.224,11.724,2,12,2s0.5,0.224,0.5,0.5v3C12.5,5.776,12.276,6,12,6z"/><path d="M13.5,4.5h-3C10.224,4.5,10,4.276,10,4s0.224-0.5,0.5-0.5h3C13.776,3.5,14,3.724,14,4S13.776,4.5,13.5,4.5z"/></g><text x="0" y="31" fill="#000000" font-size="5px" font-weight="bold" font-family="'Helvetica Neue', Helvetica, Arial-Unicode, Arial, Sans-serif">Created by icon 54</text><text x="0" y="36" fill="#000000" font-size="5px" font-weight="bold" font-family="'Helvetica Neue', Helvetica, Arial-Unicode, Arial, Sans-serif">from the Noun Project</text></svg>